<?xml version="1.0" encoding="utf-8"?>
<!-- Generator: Adobe Illustrator 18.0.0, SVG Export Plug-In . SVG Version: 6.00 Build 0)  -->
<!DOCTYPE svg PUBLIC "-//W3C//DTD SVG 1.1//EN" "http://www.w3.org/Graphics/SVG/1.1/DTD/svg11.dtd">
<svg version="1.1" id="Layer_1" xmlns="http://www.w3.org/2000/svg" xmlns:xlink="http://www.w3.org/1999/xlink" x="0px" y="0px"
	 viewBox="0 0 150 30" enable-background="new 0 0 150 30" xml:space="preserve">
<g>
	
		<rect x="1.8" y="7.1" transform="matrix(0.7071 -0.7071 0.7071 0.7071 -3.7617 11.2349)" fill="#3DB04B" width="19.7" height="6.1"/>
	
		<rect x="1.8" y="16.8" transform="matrix(0.7071 0.7071 -0.7071 0.7071 17.4596 -2.3966)" fill="#168D46" width="19.7" height="6.1"/>
	<g>
		<path fill="#FFFFFF" d="M63.1,16.4c-0.1,1.2-0.6,2.1-1.3,2.8c-0.7,0.6-1.7,1-3,1c-1.3,0-2.4-0.5-3.2-1.4c-0.8-1-1.2-2.2-1.2-3.8
			v-1.1c0-1,0.2-2,0.6-2.8c0.4-0.8,0.9-1.4,1.6-1.8c0.7-0.4,1.5-0.6,2.4-0.6c1.2,0,2.2,0.3,2.9,1c0.7,0.7,1.1,1.6,1.3,2.8h-1.5
			c-0.1-0.9-0.4-1.6-0.8-2c-0.4-0.4-1-0.6-1.8-0.6c-0.9,0-1.7,0.4-2.2,1.1c-0.5,0.7-0.8,1.7-0.8,3v1.1c0,1.2,0.3,2.2,0.8,2.9
			c0.5,0.7,1.2,1.1,2.1,1.1c0.8,0,1.5-0.2,1.9-0.6c0.4-0.4,0.7-1,0.9-2H63.1z"/>
		<path fill="#FFFFFF" d="M64.5,15.7c0-0.8,0.2-1.6,0.5-2.2s0.8-1.2,1.3-1.5s1.2-0.5,2-0.5c1.1,0,2.1,0.4,2.8,1.2
			c0.7,0.8,1.1,1.8,1.1,3.2v0.1c0,0.8-0.2,1.5-0.5,2.2c-0.3,0.6-0.8,1.2-1.3,1.5c-0.6,0.4-1.2,0.5-2,0.5c-1.1,0-2.1-0.4-2.8-1.2
			c-0.7-0.8-1.1-1.8-1.1-3.1V15.7z M66,15.9c0,0.9,0.2,1.7,0.6,2.2s1,0.8,1.7,0.8c0.7,0,1.3-0.3,1.7-0.9c0.4-0.6,0.6-1.4,0.6-2.4
			c0-0.9-0.2-1.7-0.7-2.2c-0.4-0.6-1-0.9-1.7-0.9c-0.7,0-1.3,0.3-1.7,0.8C66.2,14,66,14.9,66,15.9z"/>
		<path fill="#FFFFFF" d="M73.6,15.7c0-1.3,0.3-2.3,0.9-3.1s1.4-1.2,2.4-1.2c1,0,1.8,0.3,2.3,1V8.1h1.4V20h-1.3l-0.1-0.9
			c-0.6,0.7-1.4,1.1-2.4,1.1c-1,0-1.8-0.4-2.4-1.2s-0.9-1.8-0.9-3.1V15.7z M75,15.9c0,1,0.2,1.7,0.6,2.2c0.4,0.5,0.9,0.8,1.6,0.8
			c0.9,0,1.6-0.4,2-1.2v-3.8c-0.4-0.8-1.1-1.2-2-1.2c-0.7,0-1.2,0.3-1.6,0.8C75.2,14,75,14.8,75,15.9z"/>
		<path fill="#FFFFFF" d="M86.4,20.2c-1.1,0-2.1-0.4-2.8-1.1c-0.7-0.7-1.1-1.7-1.1-3v-0.3c0-0.8,0.2-1.6,0.5-2.2
			c0.3-0.7,0.8-1.2,1.3-1.5c0.6-0.4,1.2-0.6,1.9-0.6c1.1,0,1.9,0.4,2.5,1.1c0.6,0.7,0.9,1.7,0.9,3.1v0.6H84c0,0.8,0.3,1.5,0.7,2
			c0.5,0.5,1,0.8,1.8,0.8c0.5,0,0.9-0.1,1.3-0.3c0.4-0.2,0.7-0.5,0.9-0.8l0.9,0.7C88.8,19.6,87.8,20.2,86.4,20.2z M86.2,12.6
			c-0.6,0-1.1,0.2-1.5,0.6c-0.4,0.4-0.6,1-0.7,1.8h4.2v-0.1c0-0.7-0.2-1.3-0.6-1.7S86.8,12.6,86.2,12.6z"/>
		<path fill="#FFFFFF" d="M98.8,15c-1.3-0.4-2.2-0.8-2.8-1.4c-0.6-0.5-0.9-1.2-0.9-2c0-0.9,0.4-1.6,1.1-2.2c0.7-0.6,1.6-0.9,2.8-0.9
			c0.8,0,1.5,0.1,2.1,0.4c0.6,0.3,1.1,0.7,1.4,1.2c0.3,0.5,0.5,1.1,0.5,1.7h-1.5c0-0.7-0.2-1.2-0.7-1.6c-0.4-0.4-1-0.6-1.8-0.6
			c-0.7,0-1.3,0.2-1.7,0.5s-0.6,0.8-0.6,1.3c0,0.5,0.2,0.8,0.6,1.2c0.4,0.3,1.1,0.6,2,0.9c0.9,0.3,1.7,0.6,2.2,0.9
			c0.5,0.3,0.9,0.7,1.2,1.1c0.3,0.4,0.4,0.9,0.4,1.5c0,0.9-0.4,1.6-1.1,2.2c-0.7,0.5-1.7,0.8-2.9,0.8c-0.8,0-1.5-0.1-2.2-0.4
			s-1.2-0.7-1.6-1.2c-0.4-0.5-0.5-1.1-0.5-1.8h1.5c0,0.7,0.3,1.2,0.8,1.6c0.5,0.4,1.2,0.6,2,0.6c0.8,0,1.4-0.2,1.8-0.5
			c0.4-0.3,0.6-0.8,0.6-1.3c0-0.6-0.2-1-0.6-1.3C100.5,15.6,99.8,15.3,98.8,15z"/>
		<path fill="#FFFFFF" d="M106,11.6l0,1.1c0.6-0.8,1.5-1.2,2.5-1.2c1.8,0,2.7,1,2.7,3V20h-1.4v-5.5c0-0.6-0.1-1.1-0.4-1.3
			c-0.3-0.3-0.7-0.4-1.3-0.4c-0.5,0-0.9,0.1-1.2,0.4c-0.4,0.2-0.6,0.6-0.8,1v6h-1.4v-8.4H106z"/>
		<path fill="#FFFFFF" d="M113.4,9.4c0-0.2,0.1-0.4,0.2-0.6c0.1-0.2,0.4-0.2,0.6-0.2c0.3,0,0.5,0.1,0.6,0.2c0.1,0.2,0.2,0.4,0.2,0.6
			s-0.1,0.4-0.2,0.6s-0.4,0.2-0.6,0.2c-0.3,0-0.5-0.1-0.6-0.2C113.5,9.8,113.4,9.6,113.4,9.4z M114.9,20h-1.4v-8.4h1.4V20z"/>
		<path fill="#FFFFFF" d="M124.3,15.9c0,1.3-0.3,2.3-0.9,3.1s-1.4,1.2-2.4,1.2c-1,0-1.8-0.3-2.4-1v4h-1.4V11.6h1.3l0.1,0.9
			c0.6-0.7,1.4-1.1,2.4-1.1c1,0,1.8,0.4,2.4,1.1c0.6,0.8,0.9,1.8,0.9,3.2V15.9z M122.9,15.7c0-0.9-0.2-1.7-0.6-2.2s-1-0.8-1.7-0.8
			c-0.9,0-1.5,0.4-2,1.2v4c0.4,0.8,1.1,1.1,2,1.1c0.7,0,1.2-0.3,1.6-0.8C122.7,17.6,122.9,16.8,122.9,15.7z"/>
		<path fill="#FFFFFF" d="M133.2,15.9c0,1.3-0.3,2.3-0.9,3.1s-1.4,1.2-2.4,1.2c-1,0-1.8-0.3-2.4-1v4h-1.4V11.6h1.3l0.1,0.9
			c0.6-0.7,1.4-1.1,2.4-1.1c1,0,1.8,0.4,2.4,1.1c0.6,0.8,0.9,1.8,0.9,3.2V15.9z M131.8,15.7c0-0.9-0.2-1.7-0.6-2.2s-1-0.8-1.7-0.8
			c-0.9,0-1.5,0.4-2,1.2v4c0.4,0.8,1.1,1.1,2,1.1c0.7,0,1.2-0.3,1.6-0.8C131.6,17.6,131.8,16.8,131.8,15.7z"/>
		<path fill="#FFFFFF" d="M138.5,20.2c-1.1,0-2.1-0.4-2.8-1.1c-0.7-0.7-1.1-1.7-1.1-3v-0.3c0-0.8,0.2-1.6,0.5-2.2
			c0.3-0.7,0.8-1.2,1.3-1.5c0.6-0.4,1.2-0.6,1.9-0.6c1.1,0,1.9,0.4,2.5,1.1c0.6,0.7,0.9,1.7,0.9,3.1v0.6h-5.7c0,0.8,0.3,1.5,0.7,2
			c0.5,0.5,1,0.8,1.8,0.8c0.5,0,0.9-0.1,1.3-0.3c0.4-0.2,0.7-0.5,0.9-0.8l0.9,0.7C140.9,19.6,139.9,20.2,138.5,20.2z M138.3,12.6
			c-0.6,0-1.1,0.2-1.5,0.6c-0.4,0.4-0.6,1-0.7,1.8h4.2v-0.1c0-0.7-0.2-1.3-0.6-1.7S138.9,12.6,138.3,12.6z"/>
		<path fill="#FFFFFF" d="M145.3,9.6v2h1.6v1.1h-1.6v5.2c0,0.3,0.1,0.6,0.2,0.8s0.4,0.3,0.7,0.3c0.2,0,0.4,0,0.7-0.1V20
			c-0.4,0.1-0.7,0.2-1.1,0.2c-0.6,0-1.1-0.2-1.4-0.6s-0.5-0.9-0.5-1.6v-5.2h-1.5v-1.1h1.5v-2H145.3z"/>
	</g>
	<g>
		
			<rect x="26.7" y="7.1" transform="matrix(-0.7071 -0.7071 0.7071 -0.7071 55.2126 43.1864)" fill="#168D46" width="19.7" height="6.1"/>
		
			<rect x="26.6" y="16.8" transform="matrix(-0.7071 0.7071 -0.7071 -0.7071 76.3517 8.1287)" fill="#3DB04B" width="19.7" height="6.1"/>
	</g>
</g>
</svg>
