<?xml version="1.0" encoding="utf-8"?>
<!-- Generator: Adobe Illustrator 18.0.0, SVG Export Plug-In . SVG Version: 6.00 Build 0)  -->
<!DOCTYPE svg PUBLIC "-//W3C//DTD SVG 1.1//EN" "http://www.w3.org/Graphics/SVG/1.1/DTD/svg11.dtd">
<svg version="1.1" id="Layer_1" xmlns="http://www.w3.org/2000/svg" xmlns:xlink="http://www.w3.org/1999/xlink" x="0px" y="0px"
	 viewBox="0 0 20 20" enable-background="new 0 0 20 20" xml:space="preserve">
<g>
	<path fill="#E6E7E8" d="M8.5,13.4c1,0.6,2.1,0.9,3.1,0.9c1.5,0,3.1-0.6,4.3-1.8c2.4-2.4,2.4-6.2,0-8.5c-1.2-1.2-2.7-1.8-4.3-1.8
		c-1.5,0-3.1,0.6-4.3,1.8c-2,2-2.3,5.1-0.9,7.4l-2.9,2.9l2,2L8.5,13.4z M7.5,6.6C7.7,6,8,5.5,8.4,5.1c0.4-0.4,0.9-0.8,1.5-1
		c0.5-0.2,1.1-0.3,1.7-0.3c0.6,0,1.2,0.1,1.7,0.3c0.6,0.2,1.1,0.6,1.5,1c0.4,0.4,0.8,0.9,1,1.5c0.2,0.5,0.3,1.1,0.3,1.7
		c0,0.6-0.1,1.2-0.3,1.7c-0.2,0.6-0.6,1.1-1,1.5c-0.4,0.4-0.9,0.8-1.5,1c-0.5,0.2-1.1,0.3-1.7,0.3c-0.6,0-1.2-0.1-1.7-0.3
		c-0.1,0-0.2-0.1-0.3-0.1c-0.4-0.2-0.8-0.5-1.2-0.8c-0.3-0.3-0.6-0.7-0.8-1.2c-0.1-0.1-0.1-0.2-0.1-0.3C7.2,9.4,7.1,8.8,7.1,8.3
		C7.1,7.7,7.2,7.1,7.5,6.6L7.5,6.6z M7.5,6.6"/>
	<path fill="#E6E7E8" d="M3.6,17.3c0.3,0.3,0.7,0.3,0.9,0L5,16.9l-2-2l-0.4,0.4c-0.3,0.3-0.3,0.7,0,0.9L3.6,17.3z M3.6,17.3"/>
</g>
</svg>
